# xmcd
# 
# Track frame offsets:
#     150
#     21870
#     40387
#     56008
#     69734
#     86409
#     102674
#     115272
#     132156
#     147011
#     160121
#     175036
#     188696
#     204602
#     221794
# 
# Disc length: 3214
# 
# Revision: 2
# Processed by: cddbd v1.5.2PL0 Copyright (c) Steve Scherf et al.
# Submitted via: fre:ac v1.0.31
# 
DISCID=d90c8c0f
DTITLE=Jonny Hill - Das Beste [CD 1)
DYEAR=2010
DGENRE=
TTITLE0=Ruf Teddybär 1-4
TTITLE1=Countryblue (Medley)
TTITLE2=Tausend Jahre Einsamkeit
TTITLE3=Ich wäre ohne dich verloren
TTITLE4=Lass es nicht so enden
TTITLE5=Wie lieben uns
TTITLE6=Schön, dass es sie gibt
TTITLE7=Rosen für Mama
TTITLE8=Steh auf und leb' dein Leben
TTITLE9=Verlangen
TTITLE10=Lass mich sein wie ich bin
TTITLE11=Stell dir einmal vor
TTITLE12=Nimm mich mit in dein Leben
TTITLE13=Die dunkelsten Augen
TTITLE14=Dreißig Tonnen Kerosin
EXTD=30 Jahre Ruf Teddybär
EXTT0=
EXTT1=
EXTT2=
EXTT3=
EXTT4=
EXTT5=
EXTT6=
EXTT7=
EXTT8=
EXTT9=
EXTT10=
EXTT11=
EXTT12=
EXTT13=
EXTT14=
PLAYORDER=
